<svg xmlns="http://www.w3.org/2000/svg" viewBox="0 0 100 100">
  <defs>
    <linearGradient id="grad" x1="0%" y1="0%" x2="100%" y2="100%">
      <stop offset="0%" stop-color="#D95D39" />
      <stop offset="100%" stop-color="#C2411C" />
    </linearGradient>
  </defs>
  <!-- Center Petal -->
  <path fill="url(#grad)" d="M50 15 C65 40 70 65 50 85 C30 65 35 40 50 15 Z" />
  <!-- Left Petal -->
  <path fill="url(#grad)" d="M50 85 C30 80 10 65 15 45 C25 40 40 55 50 85 Z" opacity="0.8"/>
  <!-- Right Petal -->
  <path fill="url(#grad)" d="M50 85 C70 80 90 65 85 45 C75 40 60 55 50 85 Z" opacity="0.8"/>
  <!-- Outer Left Petal -->
  <path fill="url(#grad)" d="M50 85 C20 90 5 75 5 60 C20 55 35 65 50 85 Z" opacity="0.6"/>
  <!-- Outer Right Petal -->
  <path fill="url(#grad)" d="M50 85 C80 90 95 75 95 60 C80 55 65 65 50 85 Z" opacity="0.6"/>
</svg>